<svg xmlns="http://www.w3.org/2000/svg" viewBox="0 0 724.85 724.85"><defs><style>.cls-1{fill:#f3f3f3;}.cls-2{fill:#969696;}</style></defs><title>Asset 84</title><g id="Layer_2" data-name="Layer 2"><g id="Layer_1-2" data-name="Layer 1"><circle class="cls-1" cx="362.43" cy="362.43" r="362.43"/><path class="cls-2" d="M618.43,227.43v288a48,48,0,0,1-48,48h-416a48,48,0,0,1-48-48v-288a48,48,0,0,1,48-48h88l12.3-32.9a47.93,47.93,0,0,1,44.9-31.1h125.5a47.93,47.93,0,0,1,44.9,31.1l12.4,32.9h88A48,48,0,0,1,618.43,227.43Zm-136,144a120,120,0,1,0-120,120A120.1,120.1,0,0,0,482.43,371.43Zm-32,0a88,88,0,1,1-88-88A88.13,88.13,0,0,1,450.43,371.43Z"/></g></g></svg>