<svg xmlns="http://www.w3.org/2000/svg" viewBox="0 0 496 496">
  <defs>
    <style>.cls-1{fill:#969696;}</style>
  </defs>
  <title>user-cricle</title>
  <g id="Layer_2" data-name="Layer 2">
    <g id="Layer_1-2" data-name="Layer 1">
      <path class="cls-1"
        d="M248,0C111,0,0,111,0,248S111,496,248,496,496,385,496,248,385,0,248,0Zm0,96a88,88,0,1,1-88,88A88,88,0,0,1,248,96Zm0,344a191.63,191.63,0,0,1-146.5-68.2C120.3,336.4,157.1,312,200,312a24.47,24.47,0,0,1,7.1,1.1A132.4,132.4,0,0,0,248,320a131.9,131.9,0,0,0,40.9-6.9A24.47,24.47,0,0,1,296,312c42.9,0,79.7,24.4,98.5,59.8A191.63,191.63,0,0,1,248,440Z"/>
    </g>
  </g>
</svg>